<?xml version="1.0" encoding="UTF-8"?>
<svg version="1.1" xmlns="http://www.w3.org/2000/svg" width="512" height="512">
<path d="M0 0 C5.55261051 5.0360886 8.63450326 12.06207292 11.76953125 18.7734375 C12.14084167 19.55785721 12.5121521 20.34227692 12.89471436 21.15046692 C14.10120572 23.70227601 15.30065038 26.25732761 16.5 28.8125 C17.34388877 30.60087071 18.18821426 32.3890354 19.03295898 34.17700195 C21.17889549 38.72224177 23.31894069 43.27022518 25.45678711 47.8192749 C26.99295082 51.08731768 28.53130539 54.35432539 30.07014465 57.62110901 C30.77829119 59.12502834 31.48589074 60.62920535 32.19291687 62.13365173 C33.87145586 65.70464197 35.55681839 69.27201497 37.2590332 72.83178711 C40.1361949 78.86677963 42.9142146 84.87393128 45.33984375 91.109375 C45.74452881 92.09784424 46.14921387 93.08631348 46.56616211 94.10473633 C47.27771119 95.86261732 47.94237796 97.64080002 48.54125977 99.44018555 C49.64776757 102.10149603 50.55094327 103.48538884 52.6875 105.4375 C55.88240726 106.44256943 55.88240726 106.44256943 59.63085938 106.97875977 C60.33316933 107.09771606 61.03547928 107.21667236 61.75907135 107.3392334 C64.06601087 107.72353564 66.37583015 108.0828321 68.6875 108.4375 C69.45928589 108.55876692 70.23107178 108.68003384 71.02624512 108.80497551 C76.03373548 109.58988226 81.04620825 110.33735659 86.06150818 111.07054138 C88.85476499 111.47951363 91.64724983 111.89343392 94.4395752 112.30871582 C102.36522191 113.48703929 110.29158245 114.6603673 118.21972656 115.82177734 C123.10224373 116.53738297 127.98341654 117.26161497 132.86384583 117.99131775 C134.71003042 118.26564821 136.55669775 118.53675134 138.40385437 118.80445862 C140.98340547 119.17857289 143.56110305 119.56366785 146.13867188 119.95117188 C147.26406876 120.11026283 147.26406876 120.11026283 148.41220093 120.27256775 C155.59177381 121.37421335 162.34548598 123.24811495 167.6875 128.4375 C171.39367001 133.73202859 172.11657989 138.00130162 171.6875 144.4375 C169.6904123 151.83296538 165.95025066 155.76399553 160.4375 160.9375 C158.9506845 162.36204051 157.46628741 163.78910963 155.984375 165.21875 C155.32791992 165.83814453 154.67146484 166.45753906 153.99511719 167.09570312 C152.08402185 169.03510499 150.31910721 171.00459684 148.54785156 173.06835938 C144.14595904 178.14088653 139.39381942 182.83743901 134.625 187.5625 C133.66498625 188.5180937 132.70527547 189.47399184 131.74584961 190.43017578 C128.21979527 193.94300592 124.6882571 197.45030573 121.15686035 200.95776367 C118.16058792 203.93415517 115.16647769 206.91269157 112.17507935 209.89398193 C110.7886466 211.27403133 109.39912702 212.65097744 108.00952148 214.02783203 C103.01920586 218.9989307 98.26371003 224.08413158 93.6875 229.4375 C93.3575 229.7675 93.0275 230.0975 92.6875 230.4375 C92.69836731 240.83902473 94.83757198 251.23543599 96.5711689 261.45266724 C97.0772067 264.43873209 97.57516486 267.42604828 98.07102966 270.41381836 C99.48057677 278.89921026 100.90294886 287.38242331 102.33374023 295.86425781 C103.21265104 301.07789525 104.0812174 306.29317446 104.94370842 311.509552 C105.27183989 313.48115013 105.60389007 315.45210065 105.94012642 317.42233276 C110.70257872 345.33750271 110.70257872 345.33750271 107 352.5 C102.8721143 357.74353049 99.32046254 360.22145687 92.6875 361.4375 C84.90276648 361.63989134 79.16839306 358.47028297 72.5625 354.6875 C71.51626465 354.10476318 70.4700293 353.52202637 69.39208984 352.92163086 C66.14793109 351.10954969 62.91659705 349.27626388 59.6875 347.4375 C57.76588565 346.3497998 55.84402033 345.26254285 53.921875 344.17578125 C51.10730224 342.58318076 48.29355886 340.98922458 45.48266602 339.39013672 C37.12934563 334.6495048 28.69092899 330.0752646 20.21240234 325.56274414 C15.02850389 322.79969111 9.88354581 319.99823326 4.80859375 317.0390625 C3.89811279 316.5145752 2.98763184 315.99008789 2.04956055 315.44970703 C0.35755634 314.47015062 -1.32534851 313.47463434 -2.99682617 312.46044922 C-3.74552979 312.03006348 -4.4942334 311.59967773 -5.265625 311.15625 C-6.22710449 310.58293945 -6.22710449 310.58293945 -7.20800781 309.99804688 C-11.8776528 308.7542528 -16.50035611 311.92691504 -20.515625 314.125 C-21.48604736 314.65335449 -22.45646973 315.18170898 -23.45629883 315.72607422 C-24.48134521 316.29084473 -25.5063916 316.85561523 -26.5625 317.4375 C-27.63588623 318.02418457 -28.70927246 318.61086914 -29.81518555 319.21533203 C-32.98430689 320.9500438 -36.14929198 322.69203263 -39.3125 324.4375 C-40.52123779 325.10410645 -40.52123779 325.10410645 -41.75439453 325.78417969 C-46.08999927 328.17897453 -50.41699228 330.58901103 -54.74169922 333.00341797 C-57.73402368 334.67264056 -60.7281766 336.33855298 -63.72265625 338.00390625 C-65.42965698 338.95330078 -65.42965698 338.95330078 -67.17114258 339.921875 C-69.50680608 341.22003886 -71.84419007 342.51495706 -74.18237305 343.80859375 C-79.5347909 346.77103328 -84.87417217 349.74921588 -90.171875 352.80859375 C-91.51499756 353.57441772 -91.51499756 353.57441772 -92.88525391 354.35571289 C-94.52493701 355.29162154 -96.15809402 356.23911026 -97.78271484 357.20092773 C-103.71300421 360.55908259 -109.12879866 361.93334608 -115.94921875 361.125 C-121.62009386 359.22390663 -125.08338284 356.51182696 -128.3125 351.4375 C-132.09060001 340.10319998 -127.99014197 326.39911273 -125.91964722 315.04715538 C-125.30171039 311.63972258 -124.70360583 308.22936087 -124.11157227 304.81733704 C-122.42973715 295.12599171 -120.7384955 285.43685219 -118.97216797 275.76049805 C-117.88910434 269.81913498 -116.85045818 263.87146547 -115.84057617 257.91724586 C-115.44867031 255.65734086 -115.04027269 253.40023042 -114.61499023 251.14636803 C-114.02284712 247.99869835 -113.48787194 244.84605931 -112.96484375 241.6862793 C-112.77711899 240.76298828 -112.58939423 239.83969727 -112.39598083 238.88842773 C-111.78650974 234.88532083 -111.52128404 232.54330707 -113.94084167 229.16172218 C-115.97847002 227.12132773 -118.10666576 225.29202388 -120.3125 223.4375 C-121.46103002 222.17051226 -122.58896858 220.88415225 -123.68359375 219.5703125 C-127.99648724 214.56720998 -132.68503567 209.95942946 -137.375 205.3125 C-138.33501375 204.3569063 -139.29472453 203.40100816 -140.25415039 202.44482422 C-143.27076369 199.4395245 -146.29131596 196.43820388 -149.3125 193.4375 C-152.81920151 189.95456989 -156.32417466 186.46993498 -159.82492065 182.98101807 C-161.2113534 181.60096867 -162.60087298 180.22402256 -163.99047852 178.84716797 C-168.44925132 174.40556523 -172.7675591 169.91587768 -176.84356689 165.11878967 C-179.932273 161.58356424 -183.44182137 158.45840324 -186.859375 155.24609375 C-190.96826107 150.54181177 -192.86849607 145.69090754 -192.6015625 139.41796875 C-191.80133299 133.93531518 -189.12473266 129.35865359 -185.3125 125.4375 C-181.30727985 123.16347196 -177.8121598 121.94762621 -173.27246094 121.25292969 C-172.08807434 121.0666803 -170.90368774 120.88043091 -169.68341064 120.6885376 C-168.40085388 120.49741394 -167.11829712 120.30629028 -165.796875 120.109375 C-164.42652363 119.89780849 -163.05630759 119.68536383 -161.68621826 119.47210693 C-157.99594172 118.90038958 -154.30385463 118.34130912 -150.61123657 117.78494263 C-146.76521701 117.20363585 -142.92081055 116.61184167 -139.07617188 116.02148438 C-127.91901765 114.31148041 -116.75865074 112.62272347 -105.59765625 110.93798828 C-101.58047782 110.33145176 -97.56369307 109.72236333 -93.54714203 109.11168671 C-92.03700622 108.88262851 -90.52671824 108.65457107 -89.0162735 108.4275589 C-86.93398078 108.11458105 -84.85220101 107.79838247 -82.77050781 107.48144531 C-81.00214569 107.21427704 -81.00214569 107.21427704 -79.19805908 106.94171143 C-76.25647992 106.50116712 -76.25647992 106.50116712 -73.3125 105.4375 C-72.06482529 103.33720324 -71.00642621 101.31034606 -69.9765625 99.10546875 C-69.66135147 98.45128967 -69.34614044 97.7971106 -69.02137756 97.12310791 C-67.98332282 94.96174227 -66.96032242 92.79361048 -65.9375 90.625 C-65.21272085 89.10715666 -64.48720782 87.58966354 -63.76098633 86.07250977 C-59.44567181 77.03557506 -55.20829854 67.96219883 -51 58.875 C-50.49670166 57.78912598 -49.99340332 56.70325195 -49.47485352 55.58447266 C-48.94947998 54.45058105 -48.42410645 53.31668945 -47.8828125 52.1484375 C-47.32883789 50.9531543 -46.77486328 49.75787109 -46.20410156 48.52636719 C-44.79796222 45.48999273 -43.39782507 42.45089406 -41.99902344 39.41113281 C-39.89534995 34.84359245 -37.7747806 30.28416148 -35.64541626 25.72854614 C-34.8051439 23.92384482 -33.97023033 22.11663777 -33.14096069 20.30685425 C-31.9738005 17.76161907 -30.78792105 15.22590218 -29.59765625 12.69140625 C-29.25431244 11.93119171 -28.91096863 11.17097717 -28.55722046 10.38772583 C-25.74820921 4.48596905 -22.51225779 1.03737889 -16.5625 -1.9375 C-10.67433616 -3.0698392 -5.43140304 -2.56198257 0 0 Z " fill="#FBBB3F" transform="translate(266.3125,76.5625)"/>
</svg>
